<?xml version="1.0" encoding="utf-8"?>
<!-- Generator: Adobe Illustrator 16.0.0, SVG Export Plug-In . SVG Version: 6.00 Build 0)  -->
<!DOCTYPE svg PUBLIC "-//W3C//DTD SVG 1.1//EN" "http://www.w3.org/Graphics/SVG/1.1/DTD/svg11.dtd">
<svg version="1.1" id="Layer_1" xmlns="http://www.w3.org/2000/svg" xmlns:xlink="http://www.w3.org/1999/xlink" x="0px" y="0px"
	 width="150px" height="110px" viewBox="0 0 150 110" enable-background="new 0 0 150 110" xml:space="preserve">
<g>
	<rect x="-19.211" y="2.415" fill="none" width="167.502" height="115.521"/>
	<path fill="#24306A" d="M57.687,16.102h-6.812v-1.536c0-1.558-0.367-2.905-1.102-4.04s-1.97-1.703-3.706-1.703
		c-0.935,0-1.703,0.178-2.304,0.534c-0.601,0.357-1.068,0.812-1.402,1.369c-0.334,0.557-0.567,1.202-0.701,1.937
		s-0.2,1.502-0.2,2.304c0,0.935,0.033,1.726,0.101,2.371c0.066,0.646,0.233,1.202,0.5,1.669c0.268,0.467,0.656,0.879,1.169,1.235
		c0.512,0.357,1.212,0.712,2.104,1.068l5.208,2.07c1.514,0.579,2.738,1.258,3.673,2.037c0.935,0.78,1.658,1.692,2.17,2.738
		c0.512,1.047,0.857,2.249,1.035,3.606c0.178,1.358,0.268,2.905,0.268,4.641c0,2.003-0.2,3.862-0.602,5.576
		c-0.4,1.714-1.058,3.183-1.97,4.407c-0.913,1.225-2.126,2.193-3.639,2.904c-1.515,0.712-3.362,1.069-5.543,1.069
		c-1.647,0-3.183-0.29-4.607-0.868s-2.648-1.369-3.673-2.371s-1.836-2.192-2.437-3.573c-0.602-1.379-0.901-2.871-0.901-4.474v-2.538
		h6.811v2.137c0,1.247,0.367,2.371,1.102,3.373c0.734,1.001,1.97,1.502,3.706,1.502c1.157,0,2.059-0.167,2.705-0.5
		c0.645-0.334,1.135-0.801,1.469-1.402s0.545-1.346,0.634-2.237c0.089-0.89,0.134-1.87,0.134-2.938c0-1.246-0.045-2.27-0.134-3.071
		s-0.278-1.446-0.567-1.937c-0.29-0.489-0.69-0.89-1.202-1.202c-0.512-0.311-1.191-0.645-2.036-1.001l-4.875-2.003
		c-2.938-1.202-4.907-2.793-5.909-4.774c-1.002-1.98-1.503-4.462-1.503-7.445c0-1.78,0.244-3.472,0.735-5.075
		c0.489-1.603,1.212-2.982,2.17-4.14c0.957-1.157,2.17-2.081,3.639-2.771c1.47-0.689,3.183-1.035,5.143-1.035
		c1.69,0,3.238,0.312,4.641,0.935c1.402,0.624,2.604,1.447,3.605,2.471c1.002,1.025,1.77,2.17,2.304,3.439s0.802,2.571,0.802,3.906
		V16.102z"/>
	<path fill="#24306A" d="M61.105,13.631c0-1.914,0.334-3.606,1.002-5.075c0.667-1.469,1.546-2.682,2.637-3.639
		c1.091-0.957,2.314-1.68,3.673-2.17c1.357-0.489,2.727-0.734,4.106-0.734s2.749,0.245,4.107,0.734
		c1.357,0.49,2.581,1.213,3.672,2.17c1.091,0.958,1.971,2.17,2.638,3.639c0.668,1.469,1.002,3.161,1.002,5.075v25.107
		c0,1.959-0.334,3.662-1.002,5.108c-0.667,1.447-1.547,2.649-2.638,3.606c-1.091,0.958-2.314,1.681-3.672,2.17
		c-1.358,0.489-2.728,0.735-4.107,0.735s-2.749-0.246-4.106-0.735c-1.358-0.489-2.582-1.212-3.673-2.17
		c-1.091-0.957-1.97-2.159-2.637-3.606c-0.668-1.446-1.002-3.149-1.002-5.108V13.631z M67.916,38.738
		c0,1.647,0.456,2.861,1.369,3.639c0.912,0.779,1.992,1.168,3.238,1.168s2.326-0.389,3.239-1.168
		c0.912-0.778,1.369-1.992,1.369-3.639V13.631c0-1.646-0.457-2.86-1.369-3.639c-0.913-0.778-1.993-1.168-3.239-1.168
		s-2.326,0.39-3.238,1.168c-0.913,0.779-1.369,1.993-1.369,3.639V38.738z"/>
	<path fill="#24306A" d="M88.028,2.413h6.812v40.733h13.488v6.811h-20.3V2.413z"/>
	<path fill="#24306A" d="M111.713,2.413h6.812v47.544h-6.812V2.413z"/>
	<path fill="#24306A" d="M123.052,2.413h10.083c3.873,0,6.833,1.08,8.881,3.239c2.048,2.16,3.072,5.175,3.072,9.048v22.236
		c0,4.452-1.08,7.735-3.239,9.849c-2.159,2.115-5.265,3.172-9.314,3.172h-9.482V2.413z M129.863,43.546h3.138
		c1.914,0,3.272-0.478,4.073-1.436c0.802-0.957,1.202-2.459,1.202-4.507V14.699c0-1.87-0.379-3.316-1.135-4.34
		c-0.758-1.023-2.137-1.536-4.141-1.536h-3.138V43.546z"/>
	<path fill="#24306A" d="M3.619,70.39c0-1.914,0.334-3.606,1.002-5.075c0.667-1.469,1.546-2.682,2.637-3.639
		c1.091-0.957,2.314-1.68,3.673-2.17c1.357-0.489,2.727-0.734,4.106-0.734s2.749,0.245,4.107,0.734
		c1.357,0.49,2.581,1.213,3.672,2.17c1.091,0.958,1.971,2.17,2.638,3.639c0.668,1.469,1.002,3.161,1.002,5.075v25.107
		c0,1.959-0.334,3.662-1.002,5.108c-0.667,1.447-1.547,2.649-2.638,3.606c-1.091,0.958-2.314,1.681-3.672,2.17
		c-1.358,0.489-2.728,0.735-4.107,0.735s-2.749-0.246-4.106-0.735c-1.358-0.489-2.582-1.212-3.673-2.17
		c-1.091-0.957-1.97-2.159-2.637-3.606c-0.668-1.446-1.002-3.149-1.002-5.108V70.39z M10.43,95.497c0,1.647,0.456,2.861,1.369,3.639
		c0.912,0.779,1.992,1.168,3.238,1.168s2.326-0.389,3.239-1.168c0.912-0.778,1.369-1.992,1.369-3.639V70.39
		c0-1.646-0.457-2.86-1.369-3.639c-0.913-0.778-1.993-1.168-3.239-1.168s-2.326,0.39-3.238,1.168
		c-0.913,0.779-1.369,1.993-1.369,3.639V95.497z"/>
	<path fill="#24306A" d="M30.543,59.171h9.949c2.181,0,4.04,0.334,5.576,1.002c1.536,0.667,2.793,1.559,3.772,2.671
		c0.979,1.113,1.68,2.394,2.104,3.839c0.423,1.447,0.635,2.95,0.635,4.507v1.736c0,1.292-0.101,2.382-0.301,3.272
		c-0.2,0.891-0.501,1.669-0.901,2.337c-0.4,0.668-0.891,1.258-1.469,1.77c-0.579,0.512-1.247,0.991-2.004,1.436
		c1.603,0.757,2.782,1.881,3.539,3.372c0.757,1.492,1.136,3.483,1.136,5.976v2.671c0,4.185-1.014,7.39-3.038,9.616
		c-2.026,2.227-5.266,3.339-9.716,3.339h-9.282V59.171z M37.354,78.67h3.071c2.271,0,3.795-0.568,4.574-1.703
		c0.778-1.135,1.169-2.793,1.169-4.975c0-2.137-0.435-3.739-1.303-4.808s-2.438-1.603-4.707-1.603h-2.805V78.67z M37.354,99.904
		h2.938c1.38,0,2.459-0.2,3.239-0.601c0.778-0.4,1.368-0.957,1.77-1.669c0.4-0.711,0.645-1.558,0.734-2.537
		c0.089-0.979,0.134-2.047,0.134-3.206c0-1.202-0.067-2.247-0.201-3.138c-0.133-0.89-0.412-1.636-0.834-2.237
		c-0.424-0.601-1.014-1.057-1.77-1.369c-0.758-0.311-1.76-0.467-3.005-0.467h-3.005V99.904z"/>
	<path fill="#24306A" d="M74.174,95.497c0,1.559-0.268,3.038-0.802,4.44s-1.302,2.638-2.304,3.706s-2.215,1.915-3.64,2.538
		s-3.049,0.935-4.874,0.935c-2.182,0-3.996-0.478-5.442-1.436c-1.447-0.957-2.593-1.903-3.438-2.838l5.342-4.273
		c0.489,0.49,1.057,0.901,1.703,1.235c0.645,0.334,1.323,0.5,2.036,0.5c0.4,0,0.868-0.077,1.402-0.233
		c0.534-0.156,1.035-0.444,1.502-0.868c0.468-0.422,0.868-1.001,1.202-1.736c0.334-0.734,0.501-1.703,0.501-2.904V59.171h6.812
		V95.497z"/>
	<path fill="#24306A" d="M78.58,59.171h20.3v6.411H85.392v13.956h11.752v6.41H85.392v13.956H98.88v6.811h-20.3V59.171z"/>
	<path fill="#24306A" d="M123.919,96.098c0,1.469-0.278,2.871-0.834,4.207c-0.558,1.336-1.325,2.504-2.304,3.506
		c-0.979,1.001-2.127,1.803-3.439,2.404c-1.313,0.601-2.728,0.902-4.24,0.902c-1.291,0-2.604-0.179-3.939-0.535
		c-1.336-0.355-2.537-0.968-3.605-1.836s-1.948-2.014-2.638-3.439c-0.691-1.424-1.035-3.227-1.035-5.409V69.722
		c0-1.558,0.267-3.005,0.801-4.341c0.534-1.335,1.291-2.492,2.271-3.472c0.979-0.979,2.147-1.747,3.506-2.304
		c1.357-0.556,2.86-0.834,4.508-0.834c1.558,0,3.005,0.278,4.34,0.834c1.336,0.557,2.493,1.335,3.473,2.337
		c0.979,1.001,1.746,2.204,2.304,3.605c0.556,1.402,0.834,2.928,0.834,4.574v2.671h-6.811v-2.27c0-1.335-0.379-2.493-1.135-3.473
		c-0.758-0.979-1.781-1.469-3.072-1.469c-1.692,0-2.815,0.523-3.372,1.569c-0.557,1.046-0.835,2.37-0.835,3.973V95.43
		c0,1.38,0.301,2.538,0.901,3.473c0.602,0.935,1.681,1.402,3.239,1.402c0.444,0,0.923-0.077,1.436-0.233
		c0.511-0.156,0.979-0.411,1.402-0.768c0.423-0.355,0.768-0.845,1.035-1.469c0.267-0.623,0.4-1.402,0.4-2.337V93.16h6.811V96.098z"
		/>
	<path fill="#24306A" d="M133.803,65.582h-7.879v-6.411h22.57v6.411h-7.88v41.133h-6.812V65.582z"/>
</g>
<g>
</g>
<g>
</g>
<g>
</g>
<g>
</g>
<g>
</g>
<g>
</g>
</svg>
